{
    "asset" : {
        "generator" : "Khronos glTF Blender I/O v3.3.27",
        "version" : "2.0"
    },
    "scene" : 0,
    "scenes" : [
        {
            "name" : "Scene",
            "nodes" : [
                0,
                1,
                2,
                3,
                4,
                5,
                6,
                7,
                8
            ]
        }
    ],
    "nodes" : [
        {
            "mesh" : 0,
            "name" : "1f_glass",
            "translation" : [
                -51.5601921081543,
                0.9841738343238831,
                -14.109475135803223
            ]
        },
        {
            "mesh" : 1,
            "name" : "base",
            "scale" : [
                59.150001525878906,
                1,
                29.799999237060547
            ],
            "translation" : [
                0,
                0.9841738343238831,
                0
            ]
        },
        {
            "mesh" : 2,
            "name" : "1f_wall",
            "translation" : [
                0,
                0.9841738343238831,
                0
            ]
        },
        {
            "mesh" : 3,
            "name" : "stair",
            "translation" : [
                0,
                4.084582328796387,
                0
            ]
        },
        {
            "mesh" : 4,
            "name" : "pile",
            "translation" : [
                -39.017250061035156,
                2.4706881046295166,
                28.862071990966797
            ]
        },
        {
            "mesh" : 5,
            "name" : "stage"
        },
        {
            "mesh" : 6,
            "name" : "2f_floor",
            "scale" : [
                1,
                0.1367916464805603,
                1
            ],
            "translation" : [
                0,
                8.8194580078125,
                0
            ]
        },
        {
            "mesh" : 7,
            "name" : "\ud050\ube0c",
            "scale" : [
                1,
                1.5,
                1
            ],
            "translation" : [
                -11.062896728515625,
                11.715386390686035,
                -16.971038818359375
            ]
        },
        {
            "name" : "loof_view",
            "scale" : [
                27.829980850219727,
                27.829980850219727,
                27.829980850219727
            ],
            "translation" : [
                -7.575103759765625,
                -5.778538703918457,
                2.4666647911071777
            ]
        }
    ],
    "materials" : [
        {
            "doubleSided" : true,
            "name" : "Material",
            "pbrMetallicRoughness" : {
                "baseColorFactor" : [
                    0.800000011920929,
                    0.800000011920929,
                    0.800000011920929,
                    1
                ],
                "metallicFactor" : 0,
                "roughnessFactor" : 0.5
            }
        }
    ],
    "meshes" : [
        {
            "name" : "\ud050\ube0c.001",
            "primitives" : [
                {
                    "attributes" : {
                        "POSITION" : 0,
                        "NORMAL" : 1,
                        "TEXCOORD_0" : 2
                    },
                    "indices" : 3
                }
            ]
        },
        {
            "name" : "Cube",
            "primitives" : [
                {
                    "attributes" : {
                        "POSITION" : 4,
                        "NORMAL" : 5,
                        "TEXCOORD_0" : 6
                    },
                    "indices" : 7,
                    "material" : 0
                }
            ]
        },
        {
            "name" : "\ud050\ube0c.002",
            "primitives" : [
                {
                    "attributes" : {
                        "POSITION" : 8,
                        "NORMAL" : 9,
                        "TEXCOORD_0" : 10
                    },
                    "indices" : 11
                }
            ]
        },
        {
            "name" : "\ud050\ube0c.003",
            "primitives" : [
                {
                    "attributes" : {
                        "POSITION" : 12,
                        "NORMAL" : 13,
                        "TEXCOORD_0" : 14
                    },
                    "indices" : 15
                }
            ]
        },
        {
            "name" : "\ud050\ube0c.006",
            "primitives" : [
                {
                    "attributes" : {
                        "POSITION" : 16,
                        "NORMAL" : 17,
                        "TEXCOORD_0" : 18
                    },
                    "indices" : 19
                }
            ]
        },
        {
            "name" : "\ud050\ube0c.004",
            "primitives" : [
                {
                    "attributes" : {
                        "POSITION" : 20,
                        "NORMAL" : 21,
                        "TEXCOORD_0" : 22
                    },
                    "indices" : 23
                }
            ]
        },
        {
            "name" : "\ud050\ube0c.008",
            "primitives" : [
                {
                    "attributes" : {
                        "POSITION" : 24,
                        "NORMAL" : 25,
                        "TEXCOORD_0" : 26
                    },
                    "indices" : 27
                }
            ]
        },
        {
            "name" : "\ud050\ube0c.009",
            "primitives" : [
                {
                    "attributes" : {
                        "POSITION" : 28,
                        "NORMAL" : 29,
                        "TEXCOORD_0" : 30
                    },
                    "indices" : 31
                }
            ]
        }
    ],
    "accessors" : [
        {
            "bufferView" : 0,
            "componentType" : 5126,
            "count" : 551,
            "max" : [
                94.1796875,
                12.530128479003906,
                38.98587417602539
            ],
            "min" : [
                -2.465409755706787,
                0.7255611419677734,
                -12.826661109924316
            ],
            "type" : "VEC3"
        },
        {
            "bufferView" : 1,
            "componentType" : 5126,
            "count" : 551,
            "type" : "VEC3"
        },
        {
            "bufferView" : 2,
            "componentType" : 5126,
            "count" : 551,
            "type" : "VEC2"
        },
        {
            "bufferView" : 3,
            "componentType" : 5123,
            "count" : 870,
            "type" : "SCALAR"
        },
        {
            "bufferView" : 4,
            "componentType" : 5126,
            "count" : 74,
            "max" : [
                1,
                1,
                1.3464692831039429
            ],
            "min" : [
                -1.2375903129577637,
                -1,
                -1.0987573862075806
            ],
            "type" : "VEC3"
        },
        {
            "bufferView" : 5,
            "componentType" : 5126,
            "count" : 74,
            "type" : "VEC3"
        },
        {
            "bufferView" : 6,
            "componentType" : 5126,
            "count" : 74,
            "type" : "VEC2"
        },
        {
            "bufferView" : 7,
            "componentType" : 5123,
            "count" : 120,
            "type" : "SCALAR"
        },
        {
            "bufferView" : 8,
            "componentType" : 5126,
            "count" : 1826,
            "max" : [
                42.433982849121094,
                16.198928833007812,
                23.58425521850586
            ],
            "min" : [
                -49.040401458740234,
                1.0146174430847168,
                -26.558582305908203
            ],
            "type" : "VEC3"
        },
        {
            "bufferView" : 9,
            "componentType" : 5126,
            "count" : 1826,
            "type" : "VEC3"
        },
        {
            "bufferView" : 10,
            "componentType" : 5126,
            "count" : 1826,
            "type" : "VEC2"
        },
        {
            "bufferView" : 11,
            "componentType" : 5123,
            "count" : 3354,
            "type" : "SCALAR"
        },
        {
            "bufferView" : 12,
            "componentType" : 5126,
            "count" : 362,
            "max" : [
                12.452341079711914,
                -0.8018703460693359,
                4.667448997497559
            ],
            "min" : [
                9.986614227294922,
                -2.152113199234009,
                -6.87235689163208
            ],
            "type" : "VEC3"
        },
        {
            "bufferView" : 13,
            "componentType" : 5126,
            "count" : 362,
            "type" : "VEC3"
        },
        {
            "bufferView" : 14,
            "componentType" : 5126,
            "count" : 362,
            "type" : "VEC2"
        },
        {
            "bufferView" : 15,
            "componentType" : 5123,
            "count" : 552,
            "type" : "SCALAR"
        },
        {
            "bufferView" : 16,
            "componentType" : 5126,
            "count" : 624,
            "max" : [
                76.99186706542969,
                2.9858756065368652,
                1.585938811302185
            ],
            "min" : [
                -2.666199207305908,
                -0.5944711565971375,
                -4.8808674812316895
            ],
            "type" : "VEC3"
        },
        {
            "bufferView" : 17,
            "componentType" : 5126,
            "count" : 624,
            "type" : "VEC3"
        },
        {
            "bufferView" : 18,
            "componentType" : 5126,
            "count" : 624,
            "type" : "VEC2"
        },
        {
            "bufferView" : 19,
            "componentType" : 5123,
            "count" : 1092,
            "type" : "SCALAR"
        },
        {
            "bufferView" : 20,
            "componentType" : 5126,
            "count" : 48,
            "max" : [
                19.60250473022461,
                3.3072547912597656,
                11.358298301696777
            ],
            "min" : [
                12.139627456665039,
                1.8696098327636719,
                -13.985529899597168
            ],
            "type" : "VEC3"
        },
        {
            "bufferView" : 21,
            "componentType" : 5126,
            "count" : 48,
            "type" : "VEC3"
        },
        {
            "bufferView" : 22,
            "componentType" : 5126,
            "count" : 48,
            "type" : "VEC2"
        },
        {
            "bufferView" : 23,
            "componentType" : 5123,
            "count" : 84,
            "type" : "SCALAR"
        },
        {
            "bufferView" : 24,
            "componentType" : 5126,
            "count" : 421,
            "max" : [
                42.58856964111328,
                -19.860702514648438,
                30.871654510498047
            ],
            "min" : [
                -52.162139892578125,
                -27.68490982055664,
                -26.86837387084961
            ],
            "type" : "VEC3"
        },
        {
            "bufferView" : 25,
            "componentType" : 5126,
            "count" : 421,
            "type" : "VEC3"
        },
        {
            "bufferView" : 26,
            "componentType" : 5126,
            "count" : 421,
            "type" : "VEC2"
        },
        {
            "bufferView" : 27,
            "componentType" : 5123,
            "count" : 744,
            "type" : "SCALAR"
        },
        {
            "bufferView" : 28,
            "componentType" : 5126,
            "count" : 340,
            "max" : [
                23.109966278076172,
                -1.5060482025146484,
                40.52903747558594
            ],
            "min" : [
                -32.860286712646484,
                -3.7936296463012695,
                -7.922488212585449
            ],
            "type" : "VEC3"
        },
        {
            "bufferView" : 29,
            "componentType" : 5126,
            "count" : 340,
            "type" : "VEC3"
        },
        {
            "bufferView" : 30,
            "componentType" : 5126,
            "count" : 340,
            "type" : "VEC2"
        },
        {
            "bufferView" : 31,
            "componentType" : 5123,
            "count" : 540,
            "type" : "SCALAR"
        }
    ],
    "bufferViews" : [
        {
            "buffer" : 0,
            "byteLength" : 6612,
            "byteOffset" : 0,
            "target" : 34962
        },
        {
            "buffer" : 0,
            "byteLength" : 6612,
            "byteOffset" : 6612,
            "target" : 34962
        },
        {
            "buffer" : 0,
            "byteLength" : 4408,
            "byteOffset" : 13224,
            "target" : 34962
        },
        {
            "buffer" : 0,
            "byteLength" : 1740,
            "byteOffset" : 17632,
            "target" : 34963
        },
        {
            "buffer" : 0,
            "byteLength" : 888,
            "byteOffset" : 19372,
            "target" : 34962
        },
        {
            "buffer" : 0,
            "byteLength" : 888,
            "byteOffset" : 20260,
            "target" : 34962
        },
        {
            "buffer" : 0,
            "byteLength" : 592,
            "byteOffset" : 21148,
            "target" : 34962
        },
        {
            "buffer" : 0,
            "byteLength" : 240,
            "byteOffset" : 21740,
            "target" : 34963
        },
        {
            "buffer" : 0,
            "byteLength" : 21912,
            "byteOffset" : 21980,
            "target" : 34962
        },
        {
            "buffer" : 0,
            "byteLength" : 21912,
            "byteOffset" : 43892,
            "target" : 34962
        },
        {
            "buffer" : 0,
            "byteLength" : 14608,
            "byteOffset" : 65804,
            "target" : 34962
        },
        {
            "buffer" : 0,
            "byteLength" : 6708,
            "byteOffset" : 80412,
            "target" : 34963
        },
        {
            "buffer" : 0,
            "byteLength" : 4344,
            "byteOffset" : 87120,
            "target" : 34962
        },
        {
            "buffer" : 0,
            "byteLength" : 4344,
            "byteOffset" : 91464,
            "target" : 34962
        },
        {
            "buffer" : 0,
            "byteLength" : 2896,
            "byteOffset" : 95808,
            "target" : 34962
        },
        {
            "buffer" : 0,
            "byteLength" : 1104,
            "byteOffset" : 98704,
            "target" : 34963
        },
        {
            "buffer" : 0,
            "byteLength" : 7488,
            "byteOffset" : 99808,
            "target" : 34962
        },
        {
            "buffer" : 0,
            "byteLength" : 7488,
            "byteOffset" : 107296,
            "target" : 34962
        },
        {
            "buffer" : 0,
            "byteLength" : 4992,
            "byteOffset" : 114784,
            "target" : 34962
        },
        {
            "buffer" : 0,
            "byteLength" : 2184,
            "byteOffset" : 119776,
            "target" : 34963
        },
        {
            "buffer" : 0,
            "byteLength" : 576,
            "byteOffset" : 121960,
            "target" : 34962
        },
        {
            "buffer" : 0,
            "byteLength" : 576,
            "byteOffset" : 122536,
            "target" : 34962
        },
        {
            "buffer" : 0,
            "byteLength" : 384,
            "byteOffset" : 123112,
            "target" : 34962
        },
        {
            "buffer" : 0,
            "byteLength" : 168,
            "byteOffset" : 123496,
            "target" : 34963
        },
        {
            "buffer" : 0,
            "byteLength" : 5052,
            "byteOffset" : 123664,
            "target" : 34962
        },
        {
            "buffer" : 0,
            "byteLength" : 5052,
            "byteOffset" : 128716,
            "target" : 34962
        },
        {
            "buffer" : 0,
            "byteLength" : 3368,
            "byteOffset" : 133768,
            "target" : 34962
        },
        {
            "buffer" : 0,
            "byteLength" : 1488,
            "byteOffset" : 137136,
            "target" : 34963
        },
        {
            "buffer" : 0,
            "byteLength" : 4080,
            "byteOffset" : 138624,
            "target" : 34962
        },
        {
            "buffer" : 0,
            "byteLength" : 4080,
            "byteOffset" : 142704,
            "target" : 34962
        },
        {
            "buffer" : 0,
            "byteLength" : 2720,
            "byteOffset" : 146784,
            "target" : 34962
        },
        {
            "buffer" : 0,
            "byteLength" : 1080,
            "byteOffset" : 149504,
            "target" : 34963
        }
    ],
    "buffers" : [
        {
            "byteLength" : 150584,
            "uri" : "data:application/octet-stream;base64,"
        }
    ]
}
